<svg xmlns="http://www.w3.org/2000/svg" xmlns:xlink="http://www.w3.org/1999/xlink" xmlns:jfreesvg="http://www.jfree.org/jfreesvg/svg" width="496" height="217" text-rendering="auto" shape-rendering="auto">
  <defs></defs><rect x="0" y="0" width="496" height="217" style="fill: rgb(255, 255, 255); fill-opacity: 1.0" transform="matrix(1,0,0,1,0,0)" /><line x1="0" y1="0" x2="31" y2="31" style="stroke-width: 2.0;stroke: rgb(0, 0, 0);stroke-opacity: 1.0;stroke-linecap: square;" transform="matrix(1,0,0,1,0,0)" /><line x1="93" y1="0" x2="62" y2="31" style="stroke-width: 2.0;stroke: rgb(0, 0, 0);stroke-opacity: 1.0;stroke-linecap: square;" transform="matrix(1,0,0,1,0,0)" /><line x1="155" y1="0" x2="124" y2="31" style="stroke-width: 2.0;stroke: rgb(0, 0, 0);stroke-opacity: 1.0;stroke-linecap: square;" transform="matrix(1,0,0,1,0,0)" /><line x1="124" y1="0" x2="155" y2="31" style="stroke-width: 2.0;stroke: rgb(0, 0, 0);stroke-opacity: 1.0;stroke-linecap: square;" transform="matrix(1,0,0,1,0,0)" /><line x1="186" y1="15" x2="217" y2="15" style="stroke-width: 2.0;stroke: rgb(0, 0, 0);stroke-opacity: 1.0;stroke-linecap: square;" transform="matrix(1,0,0,1,0,0)" /><line x1="263" y1="0" x2="263" y2="31" style="stroke-width: 2.0;stroke: rgb(0, 0, 0);stroke-opacity: 1.0;stroke-linecap: square;" transform="matrix(1,0,0,1,0,0)" /><ellipse cx="325" cy="15" rx="15" ry="15" style="stroke-width: 2.0;stroke: rgb(0, 0, 0);stroke-opacity: 1.0;stroke-linecap: square;; fill: none" transform="matrix(1,0,0,1,0,0)" /><line x1="372" y1="15" x2="403" y2="15" style="stroke-width: 2.0;stroke: rgb(0, 0, 0);stroke-opacity: 1.0;stroke-linecap: square;" transform="matrix(1,0,0,1,0,0)" /><line x1="387" y1="0" x2="387" y2="31" style="stroke-width: 2.0;stroke: rgb(0, 0, 0);stroke-opacity: 1.0;stroke-linecap: square;" transform="matrix(1,0,0,1,0,0)" /><rect x="434" y="0" width="31" height="31" style="fill: rgb(0, 0, 0); fill-opacity: 1.0" transform="matrix(1,0,0,1,0,0)" /><line x1="0" y1="77" x2="31" y2="77" style="stroke-width: 2.0;stroke: rgb(0, 0, 0);stroke-opacity: 1.0;stroke-linecap: square;" transform="matrix(1,0,0,1,0,0)" /><line x1="15" y1="62" x2="15" y2="93" style="stroke-width: 2.0;stroke: rgb(0, 0, 0);stroke-opacity: 1.0;stroke-linecap: square;" transform="matrix(1,0,0,1,0,0)" /><line x1="31" y1="77" x2="62" y2="77" style="stroke-width: 2.0;stroke: rgb(0, 0, 0);stroke-opacity: 1.0;stroke-linecap: square;" transform="matrix(1,0,0,1,0,0)" /><line x1="62" y1="77" x2="93" y2="77" style="stroke-width: 2.0;stroke: rgb(0, 0, 0);stroke-opacity: 1.0;stroke-linecap: square;" transform="matrix(1,0,0,1,0,0)" /><line x1="93" y1="77" x2="124" y2="77" style="stroke-width: 2.0;stroke: rgb(0, 0, 0);stroke-opacity: 1.0;stroke-linecap: square;" transform="matrix(1,0,0,1,0,0)" /><line x1="108" y1="62" x2="108" y2="93" style="stroke-width: 2.0;stroke: rgb(0, 0, 0);stroke-opacity: 1.0;stroke-linecap: square;" transform="matrix(1,0,0,1,0,0)" /><line x1="170" y1="62" x2="170" y2="93" style="stroke-width: 2.0;stroke: rgb(0, 0, 0);stroke-opacity: 1.0;stroke-linecap: square;" transform="matrix(1,0,0,1,0,0)" /><line x1="310" y1="77" x2="341" y2="77" style="stroke-width: 2.0;stroke: rgb(0, 0, 0);stroke-opacity: 1.0;stroke-linecap: square;" transform="matrix(1,0,0,1,0,0)" /><line x1="325" y1="62" x2="325" y2="93" style="stroke-width: 2.0;stroke: rgb(0, 0, 0);stroke-opacity: 1.0;stroke-linecap: square;" transform="matrix(1,0,0,1,0,0)" /><line x1="341" y1="77" x2="372" y2="77" style="stroke-width: 2.0;stroke: rgb(0, 0, 0);stroke-opacity: 1.0;stroke-linecap: square;" transform="matrix(1,0,0,1,0,0)" /><line x1="372" y1="77" x2="403" y2="77" style="stroke-width: 2.0;stroke: rgb(0, 0, 0);stroke-opacity: 1.0;stroke-linecap: square;" transform="matrix(1,0,0,1,0,0)" /><line x1="403" y1="77" x2="434" y2="77" style="stroke-width: 2.0;stroke: rgb(0, 0, 0);stroke-opacity: 1.0;stroke-linecap: square;" transform="matrix(1,0,0,1,0,0)" /><line x1="418" y1="62" x2="418" y2="93" style="stroke-width: 2.0;stroke: rgb(0, 0, 0);stroke-opacity: 1.0;stroke-linecap: square;" transform="matrix(1,0,0,1,0,0)" /><line x1="480" y1="62" x2="480" y2="93" style="stroke-width: 2.0;stroke: rgb(0, 0, 0);stroke-opacity: 1.0;stroke-linecap: square;" transform="matrix(1,0,0,1,0,0)" /><line x1="15" y1="93" x2="15" y2="124" style="stroke-width: 2.0;stroke: rgb(0, 0, 0);stroke-opacity: 1.0;stroke-linecap: square;" transform="matrix(1,0,0,1,0,0)" /><line x1="108" y1="93" x2="108" y2="124" style="stroke-width: 2.0;stroke: rgb(0, 0, 0);stroke-opacity: 1.0;stroke-linecap: square;" transform="matrix(1,0,0,1,0,0)" /><line x1="170" y1="93" x2="170" y2="124" style="stroke-width: 2.0;stroke: rgb(0, 0, 0);stroke-opacity: 1.0;stroke-linecap: square;" transform="matrix(1,0,0,1,0,0)" /><line x1="325" y1="93" x2="325" y2="124" style="stroke-width: 2.0;stroke: rgb(0, 0, 0);stroke-opacity: 1.0;stroke-linecap: square;" transform="matrix(1,0,0,1,0,0)" /><line x1="418" y1="93" x2="418" y2="124" style="stroke-width: 2.0;stroke: rgb(0, 0, 0);stroke-opacity: 1.0;stroke-linecap: square;" transform="matrix(1,0,0,1,0,0)" /><line x1="480" y1="93" x2="480" y2="124" style="stroke-width: 2.0;stroke: rgb(0, 0, 0);stroke-opacity: 1.0;stroke-linecap: square;" transform="matrix(1,0,0,1,0,0)" /><line x1="15" y1="124" x2="15" y2="155" style="stroke-width: 2.0;stroke: rgb(0, 0, 0);stroke-opacity: 1.0;stroke-linecap: square;" transform="matrix(1,0,0,1,0,0)" /><line x1="108" y1="124" x2="108" y2="155" style="stroke-width: 2.0;stroke: rgb(0, 0, 0);stroke-opacity: 1.0;stroke-linecap: square;" transform="matrix(1,0,0,1,0,0)" /><line x1="170" y1="124" x2="170" y2="155" style="stroke-width: 2.0;stroke: rgb(0, 0, 0);stroke-opacity: 1.0;stroke-linecap: square;" transform="matrix(1,0,0,1,0,0)" /><line x1="310" y1="139" x2="341" y2="139" style="stroke-width: 2.0;stroke: rgb(0, 0, 0);stroke-opacity: 1.0;stroke-linecap: square;" transform="matrix(1,0,0,1,0,0)" /><line x1="325" y1="124" x2="325" y2="155" style="stroke-width: 2.0;stroke: rgb(0, 0, 0);stroke-opacity: 1.0;stroke-linecap: square;" transform="matrix(1,0,0,1,0,0)" /><line x1="341" y1="139" x2="372" y2="139" style="stroke-width: 2.0;stroke: rgb(0, 0, 0);stroke-opacity: 1.0;stroke-linecap: square;" transform="matrix(1,0,0,1,0,0)" /><line x1="372" y1="139" x2="403" y2="139" style="stroke-width: 2.0;stroke: rgb(0, 0, 0);stroke-opacity: 1.0;stroke-linecap: square;" transform="matrix(1,0,0,1,0,0)" /><line x1="403" y1="139" x2="434" y2="139" style="stroke-width: 2.0;stroke: rgb(0, 0, 0);stroke-opacity: 1.0;stroke-linecap: square;" transform="matrix(1,0,0,1,0,0)" /><line x1="418" y1="124" x2="418" y2="155" style="stroke-width: 2.0;stroke: rgb(0, 0, 0);stroke-opacity: 1.0;stroke-linecap: square;" transform="matrix(1,0,0,1,0,0)" /><line x1="480" y1="124" x2="480" y2="155" style="stroke-width: 2.0;stroke: rgb(0, 0, 0);stroke-opacity: 1.0;stroke-linecap: square;" transform="matrix(1,0,0,1,0,0)" /><line x1="15" y1="155" x2="15" y2="186" style="stroke-width: 2.0;stroke: rgb(0, 0, 0);stroke-opacity: 1.0;stroke-linecap: square;" transform="matrix(1,0,0,1,0,0)" /><line x1="108" y1="155" x2="108" y2="186" style="stroke-width: 2.0;stroke: rgb(0, 0, 0);stroke-opacity: 1.0;stroke-linecap: square;" transform="matrix(1,0,0,1,0,0)" /><line x1="170" y1="155" x2="170" y2="186" style="stroke-width: 2.0;stroke: rgb(0, 0, 0);stroke-opacity: 1.0;stroke-linecap: square;" transform="matrix(1,0,0,1,0,0)" /><line x1="325" y1="155" x2="325" y2="186" style="stroke-width: 2.0;stroke: rgb(0, 0, 0);stroke-opacity: 1.0;stroke-linecap: square;" transform="matrix(1,0,0,1,0,0)" /><line x1="418" y1="155" x2="418" y2="186" style="stroke-width: 2.0;stroke: rgb(0, 0, 0);stroke-opacity: 1.0;stroke-linecap: square;" transform="matrix(1,0,0,1,0,0)" /><line x1="480" y1="155" x2="480" y2="186" style="stroke-width: 2.0;stroke: rgb(0, 0, 0);stroke-opacity: 1.0;stroke-linecap: square;" transform="matrix(1,0,0,1,0,0)" /><line x1="0" y1="201" x2="31" y2="201" style="stroke-width: 2.0;stroke: rgb(0, 0, 0);stroke-opacity: 1.0;stroke-linecap: square;" transform="matrix(1,0,0,1,0,0)" /><line x1="15" y1="186" x2="15" y2="217" style="stroke-width: 2.0;stroke: rgb(0, 0, 0);stroke-opacity: 1.0;stroke-linecap: square;" transform="matrix(1,0,0,1,0,0)" /><line x1="31" y1="201" x2="62" y2="201" style="stroke-width: 2.0;stroke: rgb(0, 0, 0);stroke-opacity: 1.0;stroke-linecap: square;" transform="matrix(1,0,0,1,0,0)" /><line x1="62" y1="201" x2="93" y2="201" style="stroke-width: 2.0;stroke: rgb(0, 0, 0);stroke-opacity: 1.0;stroke-linecap: square;" transform="matrix(1,0,0,1,0,0)" /><line x1="93" y1="201" x2="124" y2="201" style="stroke-width: 2.0;stroke: rgb(0, 0, 0);stroke-opacity: 1.0;stroke-linecap: square;" transform="matrix(1,0,0,1,0,0)" /><line x1="108" y1="186" x2="108" y2="217" style="stroke-width: 2.0;stroke: rgb(0, 0, 0);stroke-opacity: 1.0;stroke-linecap: square;" transform="matrix(1,0,0,1,0,0)" /><line x1="155" y1="201" x2="186" y2="201" style="stroke-width: 2.0;stroke: rgb(0, 0, 0);stroke-opacity: 1.0;stroke-linecap: square;" transform="matrix(1,0,0,1,0,0)" /><line x1="170" y1="186" x2="170" y2="217" style="stroke-width: 2.0;stroke: rgb(0, 0, 0);stroke-opacity: 1.0;stroke-linecap: square;" transform="matrix(1,0,0,1,0,0)" /><line x1="186" y1="201" x2="217" y2="201" style="stroke-width: 2.0;stroke: rgb(0, 0, 0);stroke-opacity: 1.0;stroke-linecap: square;" transform="matrix(1,0,0,1,0,0)" /><line x1="217" y1="201" x2="248" y2="201" style="stroke-width: 2.0;stroke: rgb(0, 0, 0);stroke-opacity: 1.0;stroke-linecap: square;" transform="matrix(1,0,0,1,0,0)" /><line x1="248" y1="201" x2="279" y2="201" style="stroke-width: 2.0;stroke: rgb(0, 0, 0);stroke-opacity: 1.0;stroke-linecap: square;" transform="matrix(1,0,0,1,0,0)" /><line x1="325" y1="186" x2="325" y2="217" style="stroke-width: 2.0;stroke: rgb(0, 0, 0);stroke-opacity: 1.0;stroke-linecap: square;" transform="matrix(1,0,0,1,0,0)" /><line x1="418" y1="186" x2="418" y2="217" style="stroke-width: 2.0;stroke: rgb(0, 0, 0);stroke-opacity: 1.0;stroke-linecap: square;" transform="matrix(1,0,0,1,0,0)" /><ellipse cx="480" cy="201" rx="15" ry="15" style="stroke-width: 2.0;stroke: rgb(0, 0, 0);stroke-opacity: 1.0;stroke-linecap: square;; fill: none" transform="matrix(1,0,0,1,0,0)" /></svg>